<?xml version="1.0" encoding="UTF-8"?>
<svg id="Layer_1" xmlns="http://www.w3.org/2000/svg" viewBox="0 0 306.42 246.22">
  <defs>
    <style>
      .cls-1 {
        fill: #64ffda;
        stroke: #ccd6f6;
        stroke-miterlimit: 10;
        stroke-width: 3px;
      }
    </style>
  </defs>
  <path class="cls-1" d="M107.72,22.02c12.43-13.53,27.49-20.47,45.56-20.43,18.03.04,33.04,7.07,45.42,20.49,7.56-7.91,15.8-13.93,25.83-17.37,33.37-11.45,70.93,8.99,78.82,43.17.98,4.26,1.48,8.73,1.49,13.1.11,41.61.1,83.22.05,124.83-.04,29.76-25.76,56.47-55.52,58.23-12.19.72-23.64-1.17-34.38-7-1.3-.71-2.49-1.62-3.36-2.19,5.18-8.8,10.14-17.24,14.72-25.02,5.92,1.25,12.14,3.54,18.42,3.7,15.79.4,29.59-12.94,29.68-28.67.24-41.15.24-82.31,0-123.46-.1-16.32-14.51-29.67-30.71-29.4-16.3.27-29.83,13.97-29.83,30.27-.02,39.93-.64,79.88.19,119.8.68,32.8-27.17,65-65.75,62.07-26.16-1.99-50.25-22.33-54.5-48.01-1.26-7.59-1.19-15.44-1.21-23.18-.11-36.58-.07-73.16,0-109.74.03-20.52-19.89-35.22-38.24-30.22-12.37,3.37-22.4,15.51-22.41,28.45-.04,40.68-.04,81.37,0,122.05.02,23.28,24.43,37.72,44.87,26.58.92-.5,1.84-1.03,2.46-1.37,5.09,8.65,10.12,17.21,15.66,26.62-4.91,2.2-10.07,5.12-15.6,6.87-11.73,3.71-23.86,3.09-35.44-.12-10.69-2.96-19.69-9.55-27.1-17.93-10.16-11.5-15.4-24.79-15.33-40.34.19-41.46,0-82.92.09-124.38C1.65,33.02,23.93,7.14,49.95,2.74c21.5-3.64,40.14,1.62,55.57,17.31.52.53,1.11,1,2.2,1.97ZM122.94,122.75c0,16.3-.02,32.61.01,48.91.01,5.78-.65,11.72.4,17.32,3.08,16.43,17.14,26.19,34.25,24.52,14.17-1.39,25.92-15.1,25.95-30.67.08-40.07.09-80.15,0-120.22-.04-16.79-14.22-30.9-30.52-30.67-16.78.23-30.09,13.91-30.1,30.93,0,19.96,0,39.92,0,59.88Z"/>
  <path class="cls-1" d="M173.84,66.71c.08,11.8-8.87,20.74-20.79,20.77-11.34.03-20.46-9.23-20.46-20.77,0-11.46,9.1-20.73,20.45-20.85,11.66-.12,20.72,8.95,20.8,20.84Z"/>
</svg>